<svg xmlns="http://www.w3.org/2000/svg" viewBox="0 0 132 40"><defs><style>.cls-1{fill:#fff;}</style></defs><title>logo-white</title><g id="レイヤー_2" data-name="レイヤー 2"><g id="レイヤー_1-2" data-name="レイヤー 1"><path class="cls-1" d="M60.14,13.41c-2.58,0-4.4,1.25-5.61,4-1.2-2.8-3-4-5.66-4-5.43,0-7.54,5.45-7.54,19.44h3.82c0-15.61,2.71-15.61,3.72-15.61s3.72,0,3.72,15.61h3.83c0-15.61,2.7-15.61,3.72-15.61s3.71,0,3.71,15.61h3.83C67.68,18.68,65.64,13.41,60.14,13.41Z"/><path class="cls-1" d="M85.2,29.9a.54.54,0,0,1,.27.09,2.27,2.27,0,0,1-.45-.9l0-.17c0-.42-.18-2-.18-7.33a7.67,7.67,0,0,0-2.57-6c-3.64-3.12-9.67-2.3-10.35-2.2l.58,3.79c1.27-.2,5.31-.37,7.28,1.32a3.44,3.44,0,0,1,1,1.49,21.93,21.93,0,0,0-3.9,1.11c-5.42,2.16-6.56,5.65-6.56,8.2A4.1,4.1,0,0,0,72.21,33a5.12,5.12,0,0,0,2.68.64,18.58,18.58,0,0,0,7.13-2A4,4,0,0,0,84,33.49a3.18,3.18,0,0,0,1.21.24,3.8,3.8,0,0,0,2-.63Zm-11-.15a1,1,0,0,1-.07-.47c0-3.47,4.25-4.9,6.89-5.46,0,1.72,0,3.1.09,4.11C77.83,29.51,74.76,30.23,74.16,29.75Z"/><path class="cls-1" d="M93,40H89.13V16.67l.91-.56c.67-.42,6.7-4,11.21-1.51,2.6,1.42,4,4.41,4.06,8.87s-1.16,7.65-3.72,9.24c-2.83,1.76-6.36,1.08-8.64.31Zm0-11.09c1.56.7,4.76,1.71,6.62.54,1.67-1,2-3.78,1.92-5.9s-.44-4.69-2.07-5.59c-1.8-1-4.78.09-6.47.92Z"/><rect class="cls-1" x="108.72" y="7.02" width="3.83" height="24.73"/><path class="cls-1" d="M129.53,15.83a7.36,7.36,0,0,0-10.5,0c-2.77,3-2.5,8-2.43,8.87a10.69,10.69,0,0,0,.14,1.59l0,.23h0a8.52,8.52,0,0,0,3.56,6,6.68,6.68,0,0,0,3.58,1,13.41,13.41,0,0,0,5.88-1.64l-1.71-3.43c-1.78.9-4.22,1.77-5.73.84a4.39,4.39,0,0,1-1.66-2.71h11.1l.15-1.74C132,24.2,132.39,19,129.53,15.83Zm-9.11,6.86a7.41,7.41,0,0,1,1.44-4.28,3.53,3.53,0,0,1,4.84,0,7.48,7.48,0,0,1,1.44,4.28Z"/><path class="cls-1" d="M17.62,0s-6.17,14.61-6.17,18a6.17,6.17,0,1,0,12.33,0C23.78,14.61,17.62,0,17.62,0Zm0,20.63a3,3,0,1,1,3-3A3,3,0,0,1,17.59,20.63Z"/><path class="cls-1" d="M11.72,22.46C10.19,20.45,0,14.6,0,14.6S2.91,26,4.44,28a4.57,4.57,0,1,0,7.28-5.53ZM9.23,26.78a2.2,2.2,0,1,1,.43-3.09A2.2,2.2,0,0,1,9.23,26.78Z"/><path class="cls-1" d="M10.21,30.69c-1.56-.34-8.88,1-8.88,1S7.41,36,9,36.35a2.9,2.9,0,1,0,1.24-5.66Zm.57,3.1a1.39,1.39,0,0,1-1.66,1.07,1.41,1.41,0,0,1-1.07-1.67,1.4,1.4,0,0,1,2.73.6Z"/><path class="cls-1" d="M23.31,22.46A4.57,4.57,0,1,0,30.58,28C32.11,26,35,14.6,35,14.6S24.84,20.45,23.31,22.46Zm5.57,3.9a2.21,2.21,0,1,1-.42-3.09A2.21,2.21,0,0,1,28.88,26.36Z"/><path class="cls-1" d="M25.09,30.69a2.9,2.9,0,0,0,1.24,5.66C27.89,36,34,31.71,34,31.71S26.65,30.35,25.09,30.69Zm1.09,4.17a1.4,1.4,0,1,1,1.07-1.67A1.41,1.41,0,0,1,26.18,34.86Z"/></g></g></svg>